<svg xmlns="http://www.w3.org/2000/svg" xmlns:xlink="http://www.w3.org/1999/xlink" width="88.466" height="100.774" viewBox="0 0 88.466 100.774">
  <defs>
    <filter id="Path_65" x="0" y="0" width="88.466" height="100.774" filterUnits="userSpaceOnUse">
      <feOffset dy="3" input="SourceAlpha"/>
      <feGaussianBlur stdDeviation="3" result="blur"/>
      <feFlood flood-opacity="0.161"/>
      <feComposite operator="in" in2="blur"/>
      <feComposite in="SourceGraphic"/>
    </filter>
  </defs>
  <g id="Group_10" data-name="Group 10" transform="translate(-2025.409 -618.676)">
    <g transform="matrix(1, 0, 0, 1, 2025.41, 618.68)" filter="url(#Path_65)">
      <path id="Path_65-2" data-name="Path 65" d="M28.889-4.615C62.62.022,74.223,16.808,68.155,36.479S66.257,77.6,47.441,77.6-5.894,54.486-.129,35.269-4.841-9.253,28.889-4.615Z" transform="translate(9.77 11.17)" fill="#f16363"/>
    </g>
    <g id="Layer_2" data-name="Layer 2" transform="translate(2064.288 646.006) rotate(45)">
      <g id="Layer_1" data-name="Layer 1" transform="translate(-0.71 -7.778)">
        <path id="Path_1" data-name="Path 1" d="M31.4.128,27.529.113C24.642.1,22.584.858,21.21,2.214,19.857.827,17.8.042,14.892.023L11.021,0C4.861-.04.151,4.442.1,11.66A9.084,9.084,0,0,0,5.97,20.393,9.058,9.058,0,0,0,0,29.041c-.045,7.221,4.615,11.76,10.774,11.8l3.874.024c6.11.039,8.532-3.361,8.559-8.645l.058-9.544,8.578.06c.9.005,1.629-.974,1.632-2.184A2.58,2.58,0,0,0,33.006,19a1.426,1.426,0,0,0-1.139-.647l-8.562-.043.045-9.324c.008-2.769,1.49-4.243,4.382-4.238l3.434.018c4.037.015,6.587,2.28,6.568,6.792A7.38,7.38,0,0,1,36.41,16.4a2.426,2.426,0,0,0-.5,1.517v.005c-.011,1.682,1.565,2.73,2.753,1.8A10.08,10.08,0,0,0,42.2,11.906C42.231,4.688,37.563.157,31.4.128ZM18.843,32c-.017,2.775-1.5,4.246-4.388,4.228L11.022,36.2c-4.034-.027-6.583-2.3-6.556-6.808.03-4.964,2.115-6.821,7.456-6.786l6.967.044c.008,0,.012.005.012.015Zm.084-13.721c0,.01,0,.014-.012.014l-6.968-.044c-5.34-.035-7.4-1.917-7.368-6.876.027-4.512,2.6-6.755,6.638-6.729l3.434.022c2.887.018,4.353,1.513,4.336,4.283Z" transform="translate(0.003 0)" fill="#fff"/>
      </g>
    </g>
  </g>
</svg>
