<svg xmlns="http://www.w3.org/2000/svg" xmlns:xlink="http://www.w3.org/1999/xlink" width="88.125" height="81.682" viewBox="0 0 88.125 81.682">
  <defs>
    <filter id="Path_65" x="0" y="0" width="88.125" height="81.682" filterUnits="userSpaceOnUse">
      <feOffset dy="3" input="SourceAlpha"/>
      <feGaussianBlur stdDeviation="3" result="blur"/>
      <feFlood flood-opacity="0.161"/>
      <feComposite operator="in" in2="blur"/>
      <feComposite in="SourceGraphic"/>
    </filter>
  </defs>
  <g id="Group_10" data-name="Group 10" transform="translate(-2025.244 -628.844)">
    <g transform="matrix(1, 0, 0, 1, 2025.24, 628.84)" filter="url(#Path_65)">
      <path id="Path_65-2" data-name="Path 65" d="M32.031,6.043C52.511.66,74.223,16.808,68.155,36.479s-10.008,32.2-28.823,32.2S-5.894,54.486-.129,35.269,11.551,11.425,32.031,6.043Z" transform="translate(9.93 1)" fill="#f16363"/>
    </g>
    <g id="Layer_2" data-name="Layer 2" transform="translate(2065.288 637.006) rotate(45)">
      <g id="Layer_1" data-name="Layer 1" transform="translate(-0.709 -7.78)">
        <path id="Path_1" data-name="Path 1" d="M41.341.174l-5.1-.02c-3.8-.018-6.509,1.012-8.318,2.856C26.141,1.125,23.429.057,19.606.032L14.51,0C6.4-.054.2,6.039.138,15.852A12.358,12.358,0,0,0,7.86,27.726,12.31,12.31,0,0,0,0,39.483C-.059,49.3,6.075,55.472,14.183,55.522l5.1.033c8.044.053,11.232-4.569,11.268-11.753l.077-12.976,11.293.081c1.183.007,2.144-1.324,2.148-2.969a3.589,3.589,0,0,0-.617-2.1,1.865,1.865,0,0,0-1.5-.879L30.681,24.9l.059-12.676c.011-3.765,1.962-5.768,5.768-5.762l4.52.024c5.315.02,8.672,3.1,8.647,9.234-.011,2.963-.551,5.107-1.742,6.578a3.37,3.37,0,0,0-.664,2.062v.007c-.014,2.287,2.06,3.712,3.624,2.445,3.661-2.973,4.655-7.629,4.665-10.625C55.6,6.374,49.45.214,41.341.174ZM24.807,43.5c-.022,3.773-1.973,5.773-5.776,5.748l-4.52-.029C9.2,49.182,5.845,46.09,5.88,39.963c.04-6.749,2.784-9.273,9.815-9.226l9.172.06c.011,0,.016.007.016.02Zm.11-18.655c0,.013-.006.019-.016.019l-9.173-.06c-7.03-.047-9.742-2.606-9.7-9.348.036-6.135,3.423-9.184,8.739-9.148l4.52.03c3.8.024,5.73,2.057,5.708,5.823Z" transform="translate(0.002 0.002)"/>
      </g>
    </g>
  </g>
</svg>
